<!--?xml version="1.0" encoding="utf-8"?-->
<!-- Generator: Adobe Illustrator 18.1.1, SVG Export Plug-In . SVG Version: 6.00 Build 0)  -->

<svg version="1.1" id="_x32_" xmlns="http://www.w3.org/2000/svg" xmlns:xlink="http://www.w3.org/1999/xlink" x="0px" y="0px" viewBox="0 0 512 512" style="width: 128px; height: 128px; opacity: 1;" xml:space="preserve">
<style type="text/css">
	.st0{fill:#4B4B4B;}
</style>
<g>
	<path class="st0" d="M325.491,156.919c27.192,0,49.243-22.034,49.243-49.218c0-27.184-22.05-49.226-49.243-49.226
		c-27.175,0-49.209,22.042-49.209,49.226C276.282,134.886,298.316,156.919,325.491,156.919z" style="fill: rgb(225, 215, 0);"></path>
	<path class="st0" d="M491.78,80.468l-83.734,0.547c-10.554-0.699-19.691,7.283-20.382,17.844
		c-0.708,10.545,7.283,19.682,17.836,20.382l31.677,3.094c-9.66,7.873-22.354,17.136-34.408,22.615
		c-26.939,12.222-308.606,68.747-308.606,68.747c-10.418,1.888-17.313,11.852-15.425,22.253
		c1.888,10.419,11.852,17.331,22.253,15.442l168.682-19.016c0.573-0.101,3.254-0.017,4.248,1.231
		c0.877,1.55,0.489,3.025-0.994,7.502c-0.995,3.009-23.483,54.477-23.483,54.477L19.397,350.51
		c-12.88,2.377-21.376,14.76-18.998,27.639c2.376,12.888,14.75,21.393,27.647,18.999c0,0,217.319-28.811,217.926-28.954
		c30.699-7.013,91.287,18.552,91.287,18.552l-61.566,20.786c-12.29,4.535-18.578,18.182-14.043,30.471
		c4.535,12.289,18.173,18.578,30.463,14.052c0,0,126.014-33.498,126.369-33.658c8.227-2.79,15.206-9.019,18.662-17.726
		c6.204-15.737,1.298-28.372-17.246-39.751l-56.592-33.092c0,0,35.318-82.858,42.212-101.166
		c6.389-16.96,11.042-19.244,22.826-28.912c0,0,37.813-31.93,62.848-59.181c12.694-13.823,21.089-21.14,20.802-33.1
		C511.724,92.495,504.744,81.327,491.78,80.468z" style="fill: rgb(225, 215, 0);"></path>
</g>
</svg>
